<svg xmlns="http://www.w3.org/2000/svg" width="500" height="500" aria-hidden="true" data-bbox="15.931 17.148 329.701 340.52" data-type="ugc" viewBox="0 0 375 375"><defs><clipPath id="a"><path d="M102 131.25h151.04v112.5H102Zm0 0"/></clipPath><clipPath id="b"><path d="M86.22 154.18H268V281.9H86.22Zm0 0"/></clipPath><clipPath id="c"><path d="M174 79h22v139.1h-22Zm0 0"/></clipPath><clipPath id="d"><path d="M132 71h105.73v29H132Zm0 0"/></clipPath><clipPath id="e"><path d="M131.98 70h105.75v31H131.98Zm0 0"/></clipPath><clipPath id="f"><path d="M132 72h105.73v28H132Zm0 0"/></clipPath><clipPath id="g"><path d="M131.98 71h105.75v30H131.98Zm0 0"/></clipPath><clipPath id="h"><path d="M170 16.36h30V45h-30Zm0 0"/></clipPath><clipPath id="i"><path d="M292.14 154.18H345v56.25h-52.86Zm0 0"/></clipPath></defs><g clip-path="url(#a)"><path d="M102 131.25h151.17v112.5H102Zm0 0"/></g><g clip-path="url(#b)"><path d="M86.22 154.18h181.62V281.9H86.22Zm0 0"/></g><path stroke="#000" stroke-linecap="round" stroke-linejoin="round" stroke-width="5.32" d="M355.5 130.19c16.42 6.08 32.02 7.04 47.3 0 6.9 50.33 7 100.45 4.52 149.41h-56.34c-5.07-49.42-4.33-95.44 4.52-149.41Zm0 0" transform="matrix(.2289 0 0 .22873 97.94 13.3)"/><path fill="none" stroke="#000" stroke-linecap="round" stroke-linejoin="round" stroke-width="5.32" d="M356.08 117.36h43.23c1.08 0 2 .4 2.75 1.2.77.8 1.14 1.78 1.14 2.92v154.35c0 1.14-.37 2.12-1.14 2.92-.75.8-1.67 1.2-2.75 1.2h-43.23c-1.07 0-2-.4-2.74-1.2a4.06 4.06 0 0 1-1.15-2.92V121.48c0-1.14.38-2.12 1.15-2.92.75-.8 1.67-1.2 2.74-1.2" transform="matrix(.2289 0 0 .22873 97.94 13.3)"/><path d="M175.27 80.33h19.16v137.12h-19.16Zm0 0"/><g clip-path="url(#c)"><path fill="none" stroke="#000" stroke-linecap="round" stroke-linejoin="round" stroke-width="5.32" d="M337.82 293.01h83.7v599.46h-83.7Zm0 0" transform="matrix(.2289 0 0 .22873 97.94 13.3)"/></g><g clip-path="url(#d)"><path fill-rule="evenodd" d="M184.9 71.9c-28.54.57-40.75 9.47-52.74 14.78l8.36 13c12.72-7.18 36.59-24.16 44.1-15.32 7.53-8.84 31.87 8.14 44.6 15.31l8.35-12.99c-12-5.3-24.6-14.21-52.67-14.78Zm0 0"/></g><g clip-path="url(#e)"><path fill="none" stroke="#000" d="M379.9 256.17c-124.7 2.48-178.04 41.42-230.43 64.6l36.52 56.8c55.58-31.33 159.87-105.57 192.72-66.94 32.87-38.63 139.19 35.61 194.77 66.95l36.52-56.8c-52.4-23.2-107.44-62.13-230.11-64.6Zm0 0" transform="matrix(.2289 0 0 .22873 97.94 13.3)"/></g><g clip-path="url(#f)"><path fill-rule="evenodd" d="M185.1 72.76c-28.55.56-40.95 8.61-52.94 13.92l8.36 13c12.72-7.18 36.82-25.78 44.34-16.95 7.52-8.83 31.63 9.77 44.35 16.94l8.36-12.99c-12-5.3-24.4-13.36-52.47-13.92Zm0 0"/></g><g clip-path="url(#g)"><path fill="none" stroke="#000" d="M380.74 259.91c-124.68 2.48-178.88 37.66-231.27 60.87l36.52 56.8c55.58-31.34 160.9-112.68 193.75-74.05 32.85-38.63 138.16 42.71 193.74 74.05l36.52-56.8c-52.39-23.21-106.59-58.4-229.24-60.87Zm0 0" transform="matrix(.2289 0 0 .22873 97.94 13.3)"/></g><path d="M198.39 30.3c0 .57-.04 1.14-.12 1.71a12.7 12.7 0 0 1-.91 3.32 12.99 12.99 0 0 1-1.76 2.97c-.36.45-.75.88-1.17 1.29a13.64 13.64 0 0 1-7.78 3.74 13.36 13.36 0 0 1-1.76.12 13.99 13.99 0 0 1-3.5-.44 13.32 13.32 0 0 1-1.67-.55 13.73 13.73 0 0 1-4.4-2.84 13.48 13.48 0 0 1-2.15-2.71 13.14 13.14 0 0 1-1.36-3.16 12.27 12.27 0 0 1-.35-1.69 12.51 12.51 0 0 1-.12-1.7 11.82 11.82 0 0 1 .44-3.41c.15-.56.34-1.1.56-1.63a13.2 13.2 0 0 1 1.75-2.98 13.54 13.54 0 0 1 2.48-2.43 13.46 13.46 0 0 1 3.05-1.73c.54-.23 1.1-.41 1.67-.56a13.57 13.57 0 0 1 3.5-.47 13.98 13.98 0 0 1 3.5.42 13.97 13.97 0 0 1 3.26 1.3 13.54 13.54 0 0 1 2.8 2.07 13.03 13.03 0 0 1 2.97 4.24 12.98 12.98 0 0 1 .94 3.3c.08.57.12 1.14.13 1.71"/><g clip-path="url(#h)"><path fill="none" stroke="#000" stroke-linecap="round" stroke-linejoin="round" stroke-width="5.32" d="M386.52 67.7c0 2.22-.15 4.44-.45 6.63a48 48 0 0 1-1.33 6.52 50.17 50.17 0 0 1-5.2 12.23 50.4 50.4 0 0 1-3.78 5.52 52.05 52.05 0 0 1-4.5 5 52.63 52.63 0 0 1-5.12 4.37 54.33 54.33 0 0 1-5.65 3.7 55.68 55.68 0 0 1-6.12 2.94 53 53 0 0 1-13.13 3.44 51.52 51.52 0 0 1-6.81.45c-2.28 0-4.54-.14-6.8-.42a52.92 52.92 0 0 1-6.7-1.29 51.39 51.39 0 0 1-6.46-2.1 52.97 52.97 0 0 1-6.12-2.94 52.14 52.14 0 0 1-5.69-3.66 50.65 50.65 0 0 1-5.14-4.36 52.05 52.05 0 0 1-4.5-4.98 51.13 51.13 0 0 1-3.82-5.5 48.95 48.95 0 0 1-3.03-5.95 50.79 50.79 0 0 1-2.21-6.27 47.4 47.4 0 0 1-1.36-6.5 48.34 48.34 0 0 1-.47-6.61 46.24 46.24 0 0 1 .42-6.62 47.92 47.92 0 0 1 1.3-6.52 46.99 46.99 0 0 1 2.17-6.3 48.85 48.85 0 0 1 2.99-5.95 51 51 0 0 1 3.75-5.54 52.28 52.28 0 0 1 4.48-5 49.13 49.13 0 0 1 5.1-4.4 51.92 51.92 0 0 1 5.65-3.72 54.29 54.29 0 0 1 6.1-2.97 50.59 50.59 0 0 1 6.45-2.16 52.33 52.33 0 0 1 6.68-1.34 53.91 53.91 0 0 1 13.6-.08 53.57 53.57 0 0 1 6.7 1.25 53.77 53.77 0 0 1 6.47 2.1 50.74 50.74 0 0 1 6.14 2.9 53.7 53.7 0 0 1 5.7 3.65 52.37 52.37 0 0 1 5.15 4.34 50.11 50.11 0 0 1 4.52 4.95 49.01 49.01 0 0 1 3.83 5.5 47.94 47.94 0 0 1 3.06 5.92 48.57 48.57 0 0 1 2.25 6.28 50.23 50.23 0 0 1 1.38 6.48 48.86 48.86 0 0 1 .5 6.62" transform="matrix(.25913 0 0 .25895 98.23 12.76)"/></g><path fill="#100f0d" d="M212.61 226.84c-3.81-3.9-10 .07-8.04 4.44a22.88 22.88 0 0 1-4.94-.86 30.46 30.46 0 0 1-4.02-1.77 2.5 2.5 0 0 0-.35-2.7 2.81 2.81 0 0 0-.54-.54l.24-.18a2.47 2.47 0 0 0 .31-3.53 2.74 2.74 0 0 0-.56-.53 2.47 2.47 0 0 0 .55-3.7 2.74 2.74 0 0 0-.55-.54l.24-.18a2.47 2.47 0 0 0 .31-3.53 2.85 2.85 0 0 0-.55-.54l.24-.18a2.47 2.47 0 0 0 .31-3.53 2.5 2.5 0 0 0-.55-.53l.24-.18a2.47 2.47 0 0 0 .31-3.53 2.74 2.74 0 0 0-.55-.53c.08-.06.17-.11.24-.18a2.47 2.47 0 0 0 .31-3.53 2.85 2.85 0 0 0-.55-.53c.08-.06.17-.12.24-.19a2.47 2.47 0 0 0 .31-3.53 2.74 2.74 0 0 0-.55-.53c.08-.06.17-.11.24-.18a2.47 2.47 0 0 0 .31-3.53 2.68 2.68 0 0 0-1.65-.99c2.33-2.05 3.55-4.91 3-7.78-.9-4.68-6.22-7.62-11.86-6.55-2.71.53-5.1 1.88-6.71 3.82a7.95 7.95 0 0 0-1.9 6.64 7.53 7.53 0 0 0 1.62 3.38 2.81 2.81 0 0 0-.38.64 2.53 2.53 0 0 0 .85 3.14 2.73 2.73 0 0 0-.86 1.1 2.54 2.54 0 0 0 .85 3.14c-.36.28-.66.66-.85 1.1a2.54 2.54 0 0 0 .85 3.15c-.36.28-.66.65-.85 1.1a2.54 2.54 0 0 0 .85 3.14c-.36.27-.66.65-.85 1.1a2.54 2.54 0 0 0 .85 3.14c-.36.28-.66.66-.85 1.1a2.54 2.54 0 0 0 .85 3.15c-.36.27-.66.65-.85 1.1a2.54 2.54 0 0 0 .85 3.13c-.36.28-.66.66-.85 1.1-.43.99-.25 2.06.45 2.8a3.2 3.2 0 0 0 .41.35c-.36.28-.66.65-.85 1.1a2.53 2.53 0 0 0 .76 3.07 31.19 31.19 0 0 1-4.84 2.2c-1.41.48-3.21.69-4.93.84 1.97-4.36-4.2-8.36-8.03-4.48-3.16 3.23-1.49 9.84 7.12 9.87 3.16.02 6.55-.46 9.83-.25a1.74 1.74 0 0 1 1.26 2.8.13.13 0 0 1-.03.06 12.04 12.04 0 0 0-2.3 7.33c.15 9.03.68 31.67 2.29 50.3 4.16 48.38 7.63 60.83 7.63 60.83s3.55-12.43 8-60.78c1.72-18.63 2.38-41.26 2.6-50.3a12.24 12.24 0 0 0-2.36-7.36l-.03-.04a1.74 1.74 0 0 1 1.27-2.8c3.28-.2 6.67.28 9.82.28 8.61 0 10.32-6.6 7.17-9.83"/><g clip-path="url(#i)"><path d="M292.14 154.18h52.73v56.25h-52.73Zm0 0"/></g><path fill="none" stroke="#000" stroke-width="24.39" d="M43.54 143.55c-1 .21-1.33.87-1.13 1.77l8.24 38.32-.55.12L28 148.12c-.46-.73-1.07-1-1.9-.82l-9 1.93c-.9.2-1.31.87-1.12 1.78l15 69.74c.2.9.84 1.34 1.75 1.15l9.45-2.03c1-.22 1.34-.87 1.15-1.78l-8.28-38.5.44-.09 22.25 35.8c.44.76 1.07 1 1.89.81l8.98-1.93c.9-.2 1.34-.86 1.15-1.77l-15-69.74c-.2-.9-.87-1.35-1.78-1.15Zm59.56-8.19c-.13-.92-.57-1.43-1.67-1.27l-33.85 4.86c-.84.12-1.3.76-1.16 1.68l10.13 70.6c.13.93.76 1.41 1.59 1.29l33.85-4.86c1.1-.16 1.38-.77 1.25-1.7l-1.32-9.17c-.15-1.01-.57-1.43-1.67-1.27l-23 3.3-2.66-18.57 17.56-2.52c.92-.13 1.38-.77 1.23-1.78l-1.3-9.1c-.15-1-.77-1.5-1.69-1.36l-17.55 2.52-2.64-18.38 22.98-3.3c1.1-.16 1.37-.86 1.24-1.78Zm50.68 7.72c-.65-8.7-5.64-13-14.34-12.35l-23.25 1.74c-.93.07-1.43.67-1.36 1.6l5.3 71.13c.07.93.66 1.45 1.58 1.38l9.64-.72c.92-.07 1.45-.67 1.38-1.6L131 180.92l6.38-.48 7.97 23.08c.25.83.75 1.25 1.68 1.18l9.64-.72c1.02-.08 1.52-.69 1.16-1.77l-8.2-23.8c4.3-2.27 6.3-6.52 5.84-12.73Zm-23.7 25.62-1.85-24.83 9.16-.68c2.42-.18 3.8 1 3.98 3.43l1.3 17.42c.18 2.4-1 3.8-3.43 3.98Zm67.12-39.59c-1.11 0-1.77.57-2.04 1.68l-9.68 49.82-9.91-49.75c-.28-1.11-.94-1.68-2.05-1.67l-8.82.03c-1.4 0-1.95.75-1.67 2.04l15.83 70.56c.28 1.1.94 1.67 2.05 1.67l9.3-.03c1.11 0 1.77-.58 2.04-1.69l15.46-70.66c.26-1.29-.28-2.04-1.69-2.03Zm16.63 61.23c-.59 8.71 3.74 13.66 12.45 14.25l10.37.7c8.7.58 13.66-3.75 14.24-12.46l3.2-47.45c.58-8.72-3.75-13.67-12.46-14.25l-10.37-.7c-8.71-.59-13.66 3.74-14.25 12.45Zm15.93 2.48c-2.4-.16-3.61-1.47-3.44-3.96l2.88-42.84c.16-2.4 1.53-3.6 3.93-3.44l5.39.36c2.4.16 3.62 1.54 3.46 3.94l-2.88 42.83c-.17 2.5-1.56 3.63-3.96 3.47Zm50.31-57.8c-8.56-1.16-13.88 2.81-15.06 11.46l-2.94 21.74c-.24 1.75.45 2.97 2.01 3.73l20.86 10.14-1.66 12.23c-.34 2.5-1.78 3.51-4.18 3.19l-4.41-.6c-2.31-.31-3.52-1.69-3.19-4.18l.96-7.08c.14-1.01-.27-1.53-1.28-1.67l-9.58-1.3c-.92-.12-1.52.26-1.66 1.27l-1.3 9.67c-1.18 8.65 2.9 13.9 11.46 15.05l10.3 1.4c8.65 1.17 13.88-2.82 15.05-11.47l2.88-21.26c.23-1.75-.46-2.88-1.92-3.74l-20.94-10.14 1.72-12.7c.32-2.4 1.86-3.5 4.18-3.18l4.4.6c2.5.33 3.52 1.77 3.2 4.18l-.98 7.17c-.13.92.36 1.56 1.28 1.68l9.58 1.3c1 .13 1.53-.37 1.66-1.29l1.32-9.75c1.17-8.65-2.81-13.88-11.46-15.06Zm63.95 87.05c1.09.23 1.58-.24 1.6-1.28l-.36-73.07c.01-.95-.44-1.43-1.26-1.6l-12.63-2.67c-.82-.17-1.45.09-1.82.96l-29.83 66.7c-.48.94-.15 1.6.85 1.8l9.72 2.05c.82.17 1.38-.17 1.73-.96l5.26-12.75 16.18 3.41-.27 13.81c.03.86.38 1.4 1.2 1.57Zm-10.62-28.43-11.63-2.45 12.5-30.5Zm0 0"/><path fill="#38b6ff" d="M43.54 143.55c-1 .22-1.33.86-1.14 1.77l8.24 38.33-.54.11L28 148.14c-.45-.76-1.07-1.01-1.9-.84l-8.98 1.94c-.91.2-1.34.86-1.14 1.76l15 69.76c.2.9.85 1.33 1.76 1.14l9.45-2.03c1-.22 1.33-.86 1.14-1.77l-8.28-38.5.45-.1 22.23 35.79c.46.76 1.08 1 1.9.83l8.99-1.94c.9-.2 1.33-.86 1.14-1.76l-15-69.76c-.2-.9-.86-1.33-1.77-1.14Zm59.56-8.19c-.13-.92-.58-1.42-1.68-1.26l-33.84 4.86c-.83.11-1.3.75-1.17 1.66l10.14 70.63c.13.92.76 1.39 1.59 1.27l33.84-4.86c1.1-.16 1.4-.76 1.26-1.68l-1.32-9.2c-.14-1-.58-1.41-1.68-1.26l-23 3.3-2.66-18.57 17.57-2.52c.91-.13 1.39-.77 1.24-1.78l-1.3-9.1c-.15-1.01-.78-1.48-1.7-1.35l-17.56 2.52-2.64-18.4 22.98-3.3c1.11-.15 1.38-.85 1.25-1.77Zm50.68 7.72c-.65-8.71-5.62-13-14.33-12.35l-23.26 1.74c-.92.07-1.44.67-1.37 1.6l5.3 71.14c.08.93.67 1.44 1.6 1.37l9.64-.72c.92-.06 1.44-.66 1.37-1.59l-1.74-23.35 6.39-.47 7.96 23.07c.25.81.75 1.24 1.67 1.17l9.64-.71c1.02-.08 1.53-.68 1.17-1.77l-8.2-23.8c4.3-2.27 6.31-6.52 5.85-12.72Zm-23.7 25.62-1.86-24.83 9.18-.69c2.4-.18 3.8 1.03 3.98 3.43l1.3 17.42c.18 2.41-1.03 3.8-3.43 3.98Zm67.12-39.59c-1.1 0-1.76.56-2.03 1.68l-9.68 49.83-9.92-49.76c-.29-1.12-.94-1.67-2.05-1.67l-8.83.03c-1.39 0-1.95.75-1.66 2.05l15.84 70.55c.28 1.11.93 1.67 2.05 1.67l9.29-.03c1.1 0 1.76-.57 2.03-1.68l15.47-70.66c.27-1.3-.29-2.04-1.68-2.04Zm16.62 61.23c-.58 8.71 3.74 13.66 12.45 14.24l10.39.7c8.7.59 13.66-3.74 14.24-12.45l3.19-47.46c.58-8.7-3.74-13.65-12.45-14.24l-10.38-.7c-8.72-.58-13.66 3.74-14.25 12.46Zm15.95 2.47c-2.41-.16-3.63-1.46-3.46-3.96l2.87-42.82c.17-2.41 1.55-3.62 3.96-3.46l5.38.36c2.4.16 3.62 1.55 3.46 3.96l-2.88 42.82c-.17 2.5-1.55 3.62-3.96 3.46Zm50.28-57.8c-8.56-1.16-13.88 2.81-15.05 11.46l-2.94 21.73c-.24 1.75.44 2.97 2.02 3.74l20.85 10.14-1.66 12.24c-.34 2.5-1.79 3.51-4.18 3.19l-4.42-.6c-2.3-.31-3.52-1.7-3.19-4.18l.96-7.1c.14-1-.26-1.53-1.27-1.66l-9.57-1.3c-.92-.12-1.54.26-1.67 1.27l-1.31 9.67c-1.17 8.65 2.9 13.9 11.46 15.05l10.31 1.4c8.65 1.17 13.88-2.81 15.05-11.46l2.88-21.27c.23-1.75-.46-2.87-1.93-3.73l-20.94-10.15 1.72-12.7c.32-2.4 1.88-3.5 4.18-3.19l4.42.6c2.48.34 3.5 1.8 3.18 4.19l-.97 7.18c-.12.91.35 1.54 1.27 1.67l9.58 1.3c1.01.13 1.54-.36 1.67-1.28l1.32-9.76c1.17-8.65-2.8-13.88-11.46-15.05Zm63.98 87.07c1.1.23 1.57-.24 1.6-1.27l-.35-73.09c.02-.94-.45-1.43-1.27-1.6l-12.64-2.66c-.82-.17-1.44.07-1.81.94l-29.83 66.73c-.48.94-.14 1.58.85 1.79l9.73 2.05c.82.17 1.37-.19 1.72-.96l5.25-12.76 16.18 3.41-.25 13.81c.01.86.37 1.4 1.19 1.58Zm-10.61-28.44-11.64-2.45 12.5-30.5Zm0 0"/><path fill="none" stroke="#000" stroke-width="19.87" d="M84.93 276.23c1.2 7 5.57 10.1 12.59 8.91l9.83-1.68c6.94-1.18 10.1-5.57 8.9-12.58l-3.53-20.74c-.14-.82-.64-1.1-1.39-.98L98.8 251.3c-.82.14-1.13.57-.98 1.39l1.27 7.46c.12.75.57 1.14 1.38 1l3.88-.66 1.7 9.98c.35 2.02-.52 3.16-2.45 3.5l-5.37.9c-1.95.34-3.15-.44-3.5-2.47l-5.8-34c-.33-1.95.45-3.15 2.47-3.5l5.38-.91c1.93-.33 3.14.53 3.48 2.48l.96 5.66c.13.75.6 1.14 1.41 1l7.47-1.27c.74-.13 1.1-.66.98-1.4l-1.33-7.77c-1.2-7-5.64-10.1-12.58-8.9l-9.83 1.67c-7.01 1.2-10.11 5.57-8.91 12.58Zm74.79 1.17c.9-.1 1.18-.58.93-1.4l-18-56.73c-.21-.74-.68-1.01-1.36-.95l-10.47 1c-.68.06-1.1.41-1.18 1.18l-7.03 59.1c-.14.85.27 1.28 1.1 1.2l8.06-.76c.68-.07 1.03-.47 1.11-1.16l1-11.2 13.4-1.27 3.15 10.8c.23.67.63 1 1.31.94Zm-15.15-19.54-9.64.9 2.33-26.75Zm51.57-41.74c-.9 0-1.43.47-1.65 1.38l-8.04 37.77-8.75-37.6c-.25-.9-.77-1.37-1.7-1.36l-9.97.1c-1 0-1.51.55-1.5 1.53l.56 57.5c0 .98.53 1.52 1.53 1.5l6.96-.06c.98-.01 1.49-.55 1.48-1.53l-.33-34.05h.54l7.83 34.12c.23.9.77 1.36 1.67 1.35l3.7-.04c.92 0 1.44-.47 1.67-1.38l7.15-34.27h.53l.33 34.05c.01.97.54 1.5 1.53 1.5l7.04-.07c.98-.01 1.51-.55 1.5-1.53l-.55-57.5c-.01-.99-.55-1.52-1.53-1.5Zm51.56 3.75c.05-.76-.21-1.24-1.12-1.3l-27.8-1.93c-.67-.05-1.15.38-1.2 1.14l-4.02 57.96c-.05.76.36 1.25 1.04 1.3l27.8 1.92c.9.06 1.22-.37 1.27-1.13l.53-7.54c.05-.83-.21-1.24-1.11-1.3l-18.88-1.3 1.06-15.25 14.4 1c.77.05 1.24-.38 1.3-1.2l.51-7.47c.06-.83-.35-1.32-1.1-1.38l-14.42-1 1.05-15.09 18.87 1.31c.9.06 1.24-.45 1.3-1.2Zm20.5 1.26c-6.97-.96-11.32 2.27-12.29 9.31l-2.43 17.7c-.2 1.43.36 2.41 1.63 3.04l16.97 8.3-1.37 9.96c-.28 2.03-1.46 2.85-3.41 2.58l-3.59-.49c-1.89-.26-2.87-1.38-2.59-3.41l.8-5.77c.1-.82-.23-1.24-1.05-1.35l-7.8-1.07c-.74-.11-1.24.2-1.35 1.02l-1.08 7.87c-.97 7.05 2.34 11.32 9.31 12.29l8.38 1.15c7.05.97 11.32-2.27 12.29-9.32l2.38-17.31c.2-1.43-.37-2.34-1.56-3.05l-17.04-8.3 1.42-10.33c.27-1.96 1.53-2.85 3.42-2.6l3.58.5c2.03.28 2.86 1.46 2.6 3.42l-.81 5.84c-.1.75.29 1.27 1.04 1.37l7.8 1.07c.82.11 1.25-.3 1.35-1.04l1.1-7.95c.96-7.04-2.27-11.31-9.32-12.28Zm0 0"/><path fill="#fff" d="M84.93 276.23c1.2 7.01 5.57 10.1 12.58 8.91l9.84-1.68c6.94-1.19 10.1-5.56 8.91-12.58l-3.54-20.73c-.14-.82-.65-1.12-1.4-1L98.8 251.3c-.82.14-1.13.58-.99 1.4l1.28 7.45c.12.75.57 1.13 1.4 1l3.87-.67 1.7 10c.35 2-.53 3.16-2.47 3.49l-5.37.92c-1.94.33-3.15-.46-3.49-2.48l-5.8-34.01c-.34-1.94.45-3.15 2.47-3.5l5.37-.91c1.94-.33 3.16.53 3.5 2.47l.96 5.67c.13.75.58 1.13 1.4 1l7.46-1.28c.74-.13 1.12-.65.99-1.4l-1.33-7.76c-1.2-7.01-5.63-10.09-12.57-8.9l-9.85 1.68c-7.01 1.2-10.1 5.56-8.9 12.57Zm74.79 1.16c.9-.08 1.17-.56.94-1.38l-18-56.75c-.22-.74-.7-1-1.37-.93l-10.48.99c-.68.06-1.1.4-1.18 1.17l-7.02 59.12c-.14.85.27 1.26 1.1 1.19l8.06-.76c.68-.07 1.02-.48 1.11-1.17l1-11.2 13.4-1.26 3.15 10.8c.22.66.63 1 1.31.93Zm-15.15-19.55-9.64.92 2.33-26.75Zm51.57-41.72c-.9.01-1.43.47-1.65 1.38l-8.04 37.76-8.76-37.6c-.23-.9-.77-1.35-1.68-1.35l-9.99.1c-.98.01-1.5.54-1.5 1.53l.56 57.5c.01 1 .54 1.51 1.53 1.5l6.96-.06c.98-.01 1.5-.55 1.5-1.53l-.33-34.05h.53l7.82 34.12c.24.91.77 1.36 1.68 1.35l3.7-.03c.92-.01 1.44-.47 1.66-1.38l7.16-34.28h.53l.33 34.05c0 .98.54 1.5 1.53 1.5l7.04-.07c.98-.01 1.5-.55 1.5-1.53l-.56-57.5c-.01-.99-.55-1.51-1.53-1.5Zm51.56 3.74c.05-.76-.22-1.23-1.13-1.29l-27.78-1.93c-.68-.04-1.16.38-1.21 1.13l-4.02 57.98c-.06.75.36 1.24 1.04 1.28l27.78 1.93c.91.06 1.24-.37 1.3-1.12l.52-7.55c.06-.83-.22-1.23-1.12-1.3l-18.88-1.3 1.06-15.25 14.42 1c.75.05 1.24-.37 1.3-1.2l.51-7.48c.06-.82-.36-1.3-1.11-1.36l-14.42-1 1.05-15.1 18.87 1.31c.9.06 1.24-.45 1.3-1.2Zm20.49 1.27c-6.97-.96-11.31 2.26-12.28 9.3l-2.43 17.7c-.2 1.43.35 2.42 1.64 3.05l16.96 8.3-1.37 9.97c-.27 2.02-1.46 2.85-3.4 2.58l-3.6-.5c-1.88-.25-2.87-1.38-2.6-3.4l.8-5.78c.11-.82-.2-1.25-1.03-1.36l-7.8-1.08c-.75-.1-1.25.22-1.36 1.04l-1.09 7.87c-.96 7.05 2.34 11.33 9.31 12.28l8.4 1.16c7.05.97 11.31-2.27 12.28-9.31l2.38-17.32c.2-1.43-.37-2.34-1.57-3.04l-17.03-8.3 1.42-10.35c.27-1.95 1.53-2.84 3.4-2.58l3.6.49c2.03.28 2.86 1.46 2.6 3.4l-.8 5.86c-.11.75.28 1.26 1.02 1.36l7.8 1.07c.82.12 1.26-.28 1.37-1.03l1.09-7.95c.97-7.04-2.27-11.3-9.31-12.28Zm0 0"/></svg>