<svg xmlns="http://www.w3.org/2000/svg" xmlns:xlink="http://www.w3.org/1999/xlink" version="1.1" xml:space="preserve">
	<g id="discord">
		<rect fill="currentColor" fill-rule="evenodd" width="512" height="512" rx="15%"/><path fill="#efffff" d="m346 392-21-25c41-11 57-39 57-39-52 49-194 51-249 0 0 0 14 26 56 39l-23 25c-70-1-97-48-97-48 0-104 46-187 46-187 47-33 90-33 90-33l3 4c-58 16-83 42-83 42 68-46 208-42 263 0 1-1-33-28-86-42l5-4s43 0 90 33c0 0 46 83 46 187 0 0-27 47-97 48z" /><ellipse fill="currentColor" cx="196" cy="279" rx="33" ry="35"/><ellipse fill="currentColor" cx="312" cy="279" rx="33" ry="35"/>
	</g>

	<g id="facebook">
		<rect fill="#efffff" width="512" height="512" rx="15%"/><path fill="currentColor" d="M449.446,0c34.525,0 62.554,28.03 62.554,62.554l0,386.892c0,34.524 -28.03,62.554 -62.554,62.554l-106.468,0l0,-192.915l66.6,0l12.672,-82.621l-79.272,0l0,-53.617c0,-22.603 11.073,-44.636 46.58,-44.636l36.042,0l0,-70.34c0,0 -32.71,-5.582 -63.982,-5.582c-65.288,0 -107.96,39.569 -107.96,111.204l0,62.971l-72.573,0l0,82.621l72.573,0l0,192.915l-191.104,0c-34.524,0 -62.554,-28.03 -62.554,-62.554l0,-386.892c0,-34.524 28.029,-62.554 62.554,-62.554l386.892,0Z"/>
	</g>

	<g id="instagram">
		<rect fill="#efffff" width="512" height="512" rx="15%"/><path fill='currentColor' d="M449.446,0c34.525,0 62.554,28.03 62.554,62.554l0,386.892c0,34.524 -28.03,62.554 -62.554,62.554l-386.892,0c-34.524,0 -62.554,-28.03 -62.554,-62.554l0,-386.892c0,-34.524 28.029,-62.554 62.554,-62.554l386.892,0Zm-193.446,81c-47.527,0 -53.487,0.201 -72.152,1.053c-18.627,0.85 -31.348,3.808 -42.48,8.135c-11.508,4.472 -21.267,10.456 -30.996,20.184c-9.729,9.729 -15.713,19.489 -20.185,30.996c-4.326,11.132 -7.284,23.853 -8.135,42.48c-0.851,18.665 -1.052,24.625 -1.052,72.152c0,47.527 0.201,53.487 1.052,72.152c0.851,18.627 3.809,31.348 8.135,42.48c4.472,11.507 10.456,21.267 20.185,30.996c9.729,9.729 19.488,15.713 30.996,20.185c11.132,4.326 23.853,7.284 42.48,8.134c18.665,0.852 24.625,1.053 72.152,1.053c47.527,0 53.487,-0.201 72.152,-1.053c18.627,-0.85 31.348,-3.808 42.48,-8.134c11.507,-4.472 21.267,-10.456 30.996,-20.185c9.729,-9.729 15.713,-19.489 20.185,-30.996c4.326,-11.132 7.284,-23.853 8.134,-42.48c0.852,-18.665 1.053,-24.625 1.053,-72.152c0,-47.527 -0.201,-53.487 -1.053,-72.152c-0.85,-18.627 -3.808,-31.348 -8.134,-42.48c-4.472,-11.507 -10.456,-21.267 -20.185,-30.996c-9.729,-9.728 -19.489,-15.712 -30.996,-20.184c-11.132,-4.327 -23.853,-7.285 -42.48,-8.135c-18.665,-0.852 -24.625,-1.053 -72.152,-1.053Zm0,31.532c46.727,0 52.262,0.178 70.715,1.02c17.062,0.779 26.328,3.63 32.495,6.025c8.169,3.175 13.998,6.968 20.122,13.091c6.124,6.124 9.916,11.954 13.091,20.122c2.396,6.167 5.247,15.433 6.025,32.495c0.842,18.453 1.021,23.988 1.021,70.715c0,46.727 -0.179,52.262 -1.021,70.715c-0.778,17.062 -3.629,26.328 -6.025,32.495c-3.175,8.169 -6.967,13.998 -13.091,20.122c-6.124,6.124 -11.953,9.916 -20.122,13.091c-6.167,2.396 -15.433,5.247 -32.495,6.025c-18.45,0.842 -23.985,1.021 -70.715,1.021c-46.73,0 -52.264,-0.179 -70.715,-1.021c-17.062,-0.778 -26.328,-3.629 -32.495,-6.025c-8.169,-3.175 -13.998,-6.967 -20.122,-13.091c-6.124,-6.124 -9.917,-11.953 -13.091,-20.122c-2.396,-6.167 -5.247,-15.433 -6.026,-32.495c-0.842,-18.453 -1.02,-23.988 -1.02,-70.715c0,-46.727 0.178,-52.262 1.02,-70.715c0.779,-17.062 3.63,-26.328 6.026,-32.495c3.174,-8.168 6.967,-13.998 13.091,-20.122c6.124,-6.123 11.953,-9.916 20.122,-13.091c6.167,-2.395 15.433,-5.246 32.495,-6.025c18.453,-0.842 23.988,-1.02 70.715,-1.02Zm0,53.603c-49.631,0 -89.865,40.234 -89.865,89.865c0,49.631 40.234,89.865 89.865,89.865c49.631,0 89.865,-40.234 89.865,-89.865c0,-49.631 -40.234,-89.865 -89.865,-89.865Zm0,148.198c-32.217,0 -58.333,-26.116 -58.333,-58.333c0,-32.217 26.116,-58.333 58.333,-58.333c32.217,0 58.333,26.116 58.333,58.333c0,32.217 -26.116,58.333 -58.333,58.333Zm114.416,-151.748c0,11.598 -9.403,20.999 -21.001,20.999c-11.597,0 -20.999,-9.401 -20.999,-20.999c0,-11.598 9.402,-21 20.999,-21c11.598,0 21.001,9.402 21.001,21Z"/>
	</g>

	<g id="twitter">
		<rect fill="#efffff" width="512" height="512" rx="15%"/><path fill='currentColor' transform="scale(13, 13) translate(-5, -5)" d="M 11 4 C 7.134 4 4 7.134 4 11 L 4 39 C 4 42.866 7.134 46 11 46 L 39 46 C 42.866 46 46 42.866 46 39 L 46 11 C 46 7.134 42.866 4 39 4 L 11 4 z M 13.085938 13 L 21.023438 13 L 26.660156 21.009766 L 33.5 13 L 36 13 L 27.789062 22.613281 L 37.914062 37 L 29.978516 37 L 23.4375 27.707031 L 15.5 37 L 13 37 L 22.308594 26.103516 L 13.085938 13 z M 16.914062 15 L 31.021484 35 L 34.085938 35 L 19.978516 15 L 16.914062 15 z"/>
	</g>

	<g id="youtube">
		<rect fill="#efffff" width="512" height="512" rx="15%"/><path fill='currentColor' d="M449.446,0c34.525,0 62.554,28.03 62.554,62.554l0,386.892c0,34.524 -28.03,62.554 -62.554,62.554l-386.892,0c-34.524,0 -62.554,-28.03 -62.554,-62.554l0,-386.892c0,-34.524 28.029,-62.554 62.554,-62.554l386.892,0Zm-20.967,175.63c-4.139,-15.489 -16.337,-27.687 -31.826,-31.826c-28.078,-7.524 -140.653,-7.524 -140.653,-7.524c0,0 -112.575,0 -140.653,7.524c-15.486,4.139 -27.686,16.337 -31.826,31.826c-7.521,28.075 -7.521,86.652 -7.521,86.652c0,0 0,58.576 7.521,86.648c4.14,15.489 16.34,27.69 31.826,31.829c28.078,7.521 140.653,7.521 140.653,7.521c0,0 112.575,0 140.653,-7.521c15.489,-4.139 27.687,-16.34 31.826,-31.829c7.521,-28.072 7.521,-86.648 7.521,-86.648c0,0 0,-58.577 -7.521,-86.652Zm-208.481,140.653l0,-108.002l93.53,54.001l-93.53,54.001Z"/>
	</g>

	<g id="tiktok">
		<rect fill="#efffff" width="512" height="512" rx="15%"/><path fill='currentColor' transform="scale(5.68,5.68)" d="M 0 10.934 v 68.132 C 0 85.105 4.895 90 10.934 90 h 68.132 C 85.105 90 90 85.105 90 79.066 V 10.934 C 90 4.895 85.105 0 79.066 0 H 10.934 C 4.895 0 0 4.895 0 10.934 z M 71.039 33.277 v 6.758 c -3.187 0.001 -6.283 -0.623 -9.203 -1.855 c -1.878 -0.793 -3.627 -1.814 -5.227 -3.048 l 0.048 20.801 c -0.02 4.684 -1.873 9.085 -5.227 12.4 c -2.73 2.698 -6.188 4.414 -9.937 4.97 c -0.881 0.13 -1.777 0.197 -2.684 0.197 c -4.013 0 -7.823 -1.3 -10.939 -3.698 c -0.586 -0.452 -1.147 -0.941 -1.681 -1.468 c -3.635 -3.593 -5.509 -8.462 -5.194 -13.584 c 0.241 -3.899 1.802 -7.618 4.404 -10.532 c 3.443 -3.857 8.26 -5.998 13.41 -5.998 c 0.906 0 1.803 0.068 2.684 0.198 v 2.499 v 6.951 c -0.835 -0.275 -1.727 -0.427 -2.656 -0.427 c -4.705 0 -8.512 3.839 -8.442 8.548 c 0.045 3.013 1.69 5.646 4.118 7.098 c 1.141 0.682 2.453 1.105 3.853 1.182 c 1.097 0.06 2.151 -0.093 3.126 -0.415 c 3.362 -1.111 5.787 -4.268 5.787 -7.992 l 0.011 -13.93 V 16.5 h 9.307 c 0.009 0.922 0.103 1.822 0.276 2.694 c 0.702 3.529 2.692 6.591 5.46 8.678 c 2.414 1.821 5.42 2.9 8.678 2.9 c 0.002 0 0.029 0 0.027 -0.002 V 33.277 z" />
	</g>

	<g id="search">
		<path fill='currentColor' d="M 418.132812 448 L 283.734375 313.601562 C 273.066406 322.132812 260.800781 328.890625 246.933594 333.867188 C 233.066406 338.84375 218.3125 341.332031 202.667969 341.332031 C 163.910156 341.332031 131.109375 327.910156 104.265625 301.066406 C 77.421875 274.222656 64 241.421875 64 202.667969 C 64 163.910156 77.421875 131.109375 104.265625 104.265625 C 131.109375 77.421875 163.910156 64 202.667969 64 C 241.421875 64 274.222656 77.421875 301.066406 104.265625 C 327.910156 131.109375 341.332031 163.910156 341.332031 202.667969 C 341.332031 218.3125 338.84375 233.066406 333.867188 246.933594 C 328.890625 260.800781 322.132812 273.066406 313.601562 283.734375 L 448 418.132812 Z M 202.667969 298.667969 C 229.332031 298.667969 252 289.332031 270.667969 270.667969 C 289.332031 252 298.667969 229.332031 298.667969 202.667969 C 298.667969 176 289.332031 153.332031 270.667969 134.667969 C 252 116 229.332031 106.667969 202.667969 106.667969 C 176 106.667969 153.332031 116 134.667969 134.667969 C 116 153.332031 106.667969 176 106.667969 202.667969 C 106.667969 229.332031 116 252 134.667969 270.667969 C 153.332031 289.332031 176 298.667969 202.667969 298.667969 Z M 202.667969 298.667969 "/>
	</g>
</svg>